<svg xmlns="http://www.w3.org/2000/svg">
  <symbol id="search" viewBox="0 0 23 23">
    <path d="M21.7922 22.7118L13.182 14.1015C12.4945 14.6873 11.7038 15.1405 10.8101 15.4614C9.91633 15.7822 9.01799 15.9426 8.11508 15.9426C5.91324 15.9426 4.04966 15.1804 2.52433 13.656C0.998995 12.1316 0.236328 10.2685 0.236328 8.06663C0.236328 5.86479 0.998078 4.00075 2.52158 2.4745C4.04508 0.948251 5.90774 0.18421 8.10958 0.182376C10.3114 0.180543 12.1759 0.94321 13.7031 2.47038C15.2302 3.99754 15.9938 5.86158 15.9938 8.0625C15.9938 9.01767 15.8247 9.94213 15.4865 10.8359C15.1482 11.7296 14.7036 12.4941 14.1527 13.1294L22.763 21.7383L21.7922 22.7118ZM8.11645 14.5663C9.94062 14.5663 11.4806 13.9383 12.7365 12.6825C13.9923 11.4267 14.6202 9.88621 14.6202 8.06113C14.6202 6.23604 13.9923 4.69604 12.7365 3.44113C11.4806 2.18621 9.94062 1.55829 8.11645 1.55738C6.29228 1.55646 4.75183 2.18438 3.49508 3.44113C2.23833 4.69788 1.61041 6.23788 1.61133 8.06113C1.61224 9.88438 2.24016 11.4244 3.49508 12.6811C4.74999 13.9379 6.28999 14.5658 8.11508 14.5649"/>
  </symbol>

  <symbol id="user" viewBox="0 0 60 66">
    <path d="M30 6.6C26.4638 6.6 23.0724 7.99071 20.5719 10.4662C18.0714 12.9417 16.6667 16.2991 16.6667 19.8C16.6667 23.3009 18.0714 26.6583 20.5719 29.1338C23.0724 31.6093 26.4638 33 30 33C33.5362 33 36.9276 31.6093 39.4281 29.1338C41.9286 26.6583 43.3333 23.3009 43.3333 19.8C43.3333 16.2991 41.9286 12.9417 39.4281 10.4662C36.9276 7.99071 33.5362 6.6 30 6.6ZM10 19.8C10 14.5487 12.1071 9.51251 15.8579 5.79929C19.6086 2.08607 24.6957 0 30 0C35.3043 0 40.3914 2.08607 44.1421 5.79929C47.8929 9.51251 50 14.5487 50 19.8C50 25.0513 47.8929 30.0875 44.1421 33.8007C40.3914 37.5139 35.3043 39.6 30 39.6C24.6957 39.6 19.6086 37.5139 15.8579 33.8007C12.1071 30.0875 10 25.0513 10 19.8ZM16.6667 52.8C14.0145 52.8 11.471 53.843 9.5956 55.6996C7.72024 57.5563 6.66667 60.0744 6.66667 62.7C6.66667 63.5752 6.31548 64.4146 5.69036 65.0335C5.06523 65.6523 4.21739 66 3.33333 66C2.44928 66 1.60143 65.6523 0.976311 65.0335C0.351189 64.4146 0 63.5752 0 62.7C0 58.3239 1.75595 54.1271 4.88155 51.0327C8.00716 47.9384 12.2464 46.2 16.6667 46.2H43.3333C47.7536 46.2 51.9928 47.9384 55.1184 51.0327C58.2441 54.1271 60 58.3239 60 62.7C60 63.5752 59.6488 64.4146 59.0237 65.0335C58.3986 65.6523 57.5507 66 56.6667 66C55.7826 66 54.9348 65.6523 54.3096 65.0335C53.6845 64.4146 53.3333 63.5752 53.3333 62.7C53.3333 60.0744 52.2798 57.5563 50.4044 55.6996C48.529 53.843 45.9855 52.8 43.3333 52.8H16.6667Z"/>
  </symbol>
</svg>