<svg xmlns="http://www.w3.org/2000/svg">
  <symbol id="search" viewBox="0 0 23 23">
    <path d="M21.7922 22.7118L13.182 14.1015C12.4945 14.6873 11.7038 15.1405 10.8101 15.4614C9.91633 15.7822 9.01799 15.9426 8.11508 15.9426C5.91324 15.9426 4.04966 15.1804 2.52433 13.656C0.998995 12.1316 0.236328 10.2685 0.236328 8.06663C0.236328 5.86479 0.998078 4.00075 2.52158 2.4745C4.04508 0.948251 5.90774 0.18421 8.10958 0.182376C10.3114 0.180543 12.1759 0.94321 13.7031 2.47038C15.2302 3.99754 15.9938 5.86158 15.9938 8.0625C15.9938 9.01767 15.8247 9.94213 15.4865 10.8359C15.1482 11.7296 14.7036 12.4941 14.1527 13.1294L22.763 21.7383L21.7922 22.7118ZM8.11645 14.5663C9.94062 14.5663 11.4806 13.9383 12.7365 12.6825C13.9923 11.4267 14.6202 9.88621 14.6202 8.06113C14.6202 6.23604 13.9923 4.69604 12.7365 3.44113C11.4806 2.18621 9.94062 1.55829 8.11645 1.55738C6.29228 1.55646 4.75183 2.18438 3.49508 3.44113C2.23833 4.69788 1.61041 6.23788 1.61133 8.06113C1.61224 9.88438 2.24016 11.4244 3.49508 12.6811C4.74999 13.9379 6.28999 14.5658 8.11508 14.5649"/>
  </symbol>
</svg>